<svg width="20" height="18" viewBox="0 0 20 18" fill="none" xmlns="http://www.w3.org/2000/svg">
<path d="M9.96234 4.67078C11.2521 4.67078 12.2977 3.62519 12.2977 2.33539C12.2977 1.04559 11.2521 0 9.96234 0C8.67254 0 7.62695 1.04559 7.62695 2.33539C7.62695 3.62519 8.67254 4.67078 9.96234 4.67078Z" fill="white"/>
<path d="M18.1393 8.76052L15.9627 8.30649C15.2211 8.15115 14.489 8.49103 14.1019 9.09527C13.726 8.90217 13.3218 8.73565 12.8918 8.59747V7.30316C12.8926 6.32387 12.091 5.52307 11.1151 5.52307H8.88959C7.90859 5.52307 7.11038 6.32387 7.11038 7.30316V8.60431C6.68467 8.73991 6.28471 8.90643 5.9062 9.1004C5.51913 8.49358 4.78613 8.15115 4.0437 8.30649L1.86536 8.76052C0.909227 8.9605 0.288674 9.90892 0.488655 10.8685L1.0354 13.4802C1.23367 14.4372 2.18292 15.0578 3.13993 14.8578L3.82912 14.7136C4.17413 15.2234 4.65136 15.6912 5.26245 16.0911C6.53526 16.9254 8.21668 17.3854 10.001 17.3854C12.7312 17.3854 15.0829 16.2877 16.1661 14.711L16.8665 14.8578C17.8226 15.0569 18.7718 14.4372 18.9701 13.4802L19.5177 10.8685C19.7168 9.90892 19.0962 8.9605 18.1393 8.76052ZM10.0001 16.4937C8.38829 16.4937 6.87769 16.0877 5.75078 15.3453C5.36455 15.0929 5.0444 14.8123 4.7878 14.5119L5.31565 14.4012C6.27349 14.2021 6.89404 13.2536 6.69406 12.2958L6.20398 9.94751C6.48979 9.79389 6.79019 9.65912 7.10946 9.54413V9.97242C7.10946 10.95 7.90939 11.7508 8.88868 11.7508H11.1142C12.091 11.7508 12.8909 10.9492 12.8909 9.97242V9.52181C13.2162 9.63768 13.5217 9.77073 13.805 9.92177L13.308 12.2967C13.1097 13.2545 13.7294 14.2029 14.6872 14.402L15.2202 14.5136C14.2264 15.6903 12.26 16.4937 10.0001 16.4937Z" fill="white"/>
<path d="M17.6655 7.74072C18.9553 7.74072 20.0009 6.69513 20.0009 5.40533C20.0009 4.11554 18.9553 3.06995 17.6655 3.06995C16.3757 3.06995 15.3301 4.11554 15.3301 5.40533C15.3301 6.69513 16.3757 7.74072 17.6655 7.74072Z" fill="white"/>
<path d="M2.81456 7.69179C4.07795 7.42743 4.88475 6.18895 4.62381 4.9264C4.35774 3.66472 3.12181 2.85449 1.85755 3.11885C0.595871 3.38233 -0.214357 4.61998 0.050003 5.88253C0.313527 7.14592 1.55117 7.95531 2.81456 7.69179Z" fill="white"/>
</svg>
