<svg width="20" height="15" viewBox="0 0 20 15" fill="none" xmlns="http://www.w3.org/2000/svg">
<g clip-path="url(#clip0_916_4865)">
<path d="M1.30769 7.93811V14.4955C1.30769 14.7742 1.52642 14.9999 1.79598 14.9999C2.06554 14.9999 2.28421 14.7742 2.28421 14.4955V10.8127H2.46726V14.4955C2.46726 14.7742 2.68593 14.9999 2.95549 14.9999C3.22517 14.9999 3.44372 14.7742 3.44372 14.4955V7.93805C3.60088 7.85335 3.81586 7.70246 4.02672 7.44169C4.1332 7.3104 4.23662 7.15139 4.33083 6.96285V6.63231C4.20933 6.55632 4.06589 6.44971 3.91666 6.30534C3.80839 6.63329 3.67115 6.8623 3.54178 7.02322C3.40521 7.19198 3.27367 7.28849 3.18074 7.34298C3.13972 7.36708 3.10668 7.38236 3.08402 7.39187H1.66762C1.58429 7.35699 1.35714 7.24173 1.13418 6.92261C0.88616 6.5656 0.632669 5.94061 0.631944 4.83436C0.631832 4.79821 0.632167 4.76212 0.632669 4.7262C0.635795 4.54596 0.496883 4.39727 0.322364 4.3941C0.147901 4.39087 0.00402255 4.53449 0.000952983 4.71472C0.00022745 4.75566 4.2085e-06 4.79556 4.2085e-06 4.83442C-0.00139105 6.16397 0.344354 6.97277 0.724701 7.44169C0.935552 7.70252 1.15064 7.85341 1.30769 7.93811Z" fill="white"/>
<path d="M2.37488 7.1595C2.86562 7.1595 3.26344 6.74852 3.26344 6.24155C3.26344 5.73459 2.86562 5.32361 2.37488 5.32361C1.88415 5.32361 1.48633 5.73459 1.48633 6.24155C1.48633 6.74852 1.88415 7.1595 2.37488 7.1595Z" fill="white"/>
<path d="M4.55477 6.49781V14.3927C4.55477 14.7282 4.81803 15 5.14251 15C5.46721 15 5.73047 14.7282 5.73047 14.3927V9.95874H5.95075V14.3927C5.95075 14.7282 6.21401 15 6.5386 15C6.86331 15 7.12645 14.7282 7.12645 14.3927V6.49781C7.3157 6.39582 7.57444 6.2142 7.82832 5.90021C7.9021 5.80928 7.97477 5.70758 8.04481 5.59446V5.27147C7.89875 5.17259 7.7335 5.04067 7.56412 4.8696C7.46265 5.0917 7.35131 5.26345 7.24438 5.39635C7.08002 5.59953 6.92185 5.71582 6.8099 5.78138C6.76039 5.81038 6.72071 5.82883 6.69336 5.84025H4.98803C4.88773 5.79821 4.61426 5.65949 4.34576 5.27527C4.04718 4.8455 3.74212 4.09298 3.74111 2.76118C3.741 2.71765 3.74145 2.67417 3.74212 2.63093C3.7458 2.41391 3.57848 2.23495 3.36858 2.23114C3.1584 2.22728 2.98522 2.40013 2.98165 2.61715C2.98064 2.66633 2.98047 2.71436 2.98047 2.76123C2.97874 4.36188 3.39503 5.3357 3.85296 5.90027C4.10673 6.2142 4.36563 6.39588 4.55477 6.49781Z" fill="white"/>
<path d="M5.8393 5.5604C6.43012 5.5604 6.90907 5.06561 6.90907 4.45525C6.90907 3.84489 6.43012 3.3501 5.8393 3.3501C5.24848 3.3501 4.76953 3.84489 4.76953 4.45525C4.76953 5.06561 5.24848 5.5604 5.8393 5.5604Z" fill="white"/>
<path d="M16.9147 7.39199C16.892 7.38248 16.859 7.36726 16.8179 7.3431C16.725 7.28862 16.5935 7.1921 16.4569 7.02334C16.3276 6.86242 16.1904 6.63347 16.0821 6.30558C15.9328 6.44983 15.7894 6.55644 15.668 6.63243V6.9632C15.7622 7.15162 15.8655 7.31058 15.972 7.44181C16.1828 7.70259 16.3978 7.85347 16.555 7.93817V14.4956C16.555 14.7743 16.7735 15.0001 17.0432 15.0001C17.3128 15.0001 17.5314 14.7743 17.5314 14.4956V10.8128H17.7145V14.4956C17.7145 14.7743 17.9331 15.0001 18.2027 15.0001C18.4723 15.0001 18.691 14.7743 18.691 14.4956V7.93817C18.848 7.85347 19.0631 7.70253 19.2739 7.44175C19.6543 6.97283 20.0001 6.16397 19.9986 4.83448C19.9986 4.79562 19.9984 4.75567 19.9976 4.71484C19.9945 4.53461 19.8507 4.39099 19.6762 4.39422C19.5017 4.39739 19.3628 4.54603 19.3659 4.72632C19.3664 4.76224 19.3667 4.79833 19.3666 4.83448C19.3659 5.94073 19.1124 6.56572 18.8644 6.92273C18.6414 7.24186 18.4143 7.35711 18.331 7.39199H16.9147Z" fill="white"/>
<path d="M17.6229 7.1595C18.1137 7.1595 18.5115 6.74852 18.5115 6.24155C18.5115 5.73459 18.1137 5.32361 17.6229 5.32361C17.1322 5.32361 16.7344 5.73459 16.7344 6.24155C16.7344 6.74852 17.1322 7.1595 17.6229 7.1595Z" fill="white"/>
<path d="M13.3064 5.84024C13.2791 5.82882 13.2394 5.81037 13.1899 5.78137C13.0779 5.71582 12.9198 5.59958 12.7554 5.39634C12.6485 5.26339 12.5371 5.09157 12.4357 4.86948C12.2664 5.04037 12.1011 5.17241 11.9551 5.27146V5.59457C12.0251 5.70757 12.0978 5.80933 12.1715 5.9002C12.4254 6.2142 12.6841 6.39587 12.8734 6.49781V14.3928C12.8734 14.7283 13.1365 15 13.4612 15C13.7858 15 14.0491 14.7283 14.0491 14.3928V9.95879H14.2694V14.3928C14.2694 14.7283 14.5326 15 14.8573 15C15.1818 15 15.4451 14.7283 15.4451 14.3928V6.49781C15.6342 6.39581 15.8931 6.2142 16.1469 5.90014C16.6049 5.33557 17.0211 4.36176 17.0194 2.76111C17.0194 2.71424 17.0192 2.66621 17.0182 2.61703C17.0146 2.40001 16.8414 2.22716 16.6312 2.23102C16.4212 2.23483 16.2539 2.41379 16.2577 2.63081C16.2583 2.67405 16.2588 2.71752 16.2587 2.76105C16.2577 4.09285 15.9526 4.84538 15.654 5.27515C15.3855 5.65937 15.112 5.79809 15.0117 5.84012H13.3064V5.84024Z" fill="white"/>
<path d="M14.1596 5.5604C14.7504 5.5604 15.2294 5.06561 15.2294 4.45525C15.2294 3.84489 14.7504 3.3501 14.1596 3.3501C13.5688 3.3501 13.0898 3.84489 13.0898 4.45525C13.0898 5.06561 13.5688 5.5604 14.1596 5.5604Z" fill="white"/>
<path d="M8.49057 5.00858V14.2758C8.49057 14.6696 8.7996 14.9886 9.18056 14.9886C9.56163 14.9886 9.87065 14.6696 9.87065 14.2758V9.07115H10.1293V14.2758C10.1293 14.6696 10.4384 14.9886 10.8193 14.9886C11.2004 14.9886 11.5094 14.6696 11.5094 14.2758V5.00852C11.7315 4.88883 12.0353 4.67561 12.3333 4.30708C12.8709 3.64443 13.3596 2.50128 13.3574 0.622385C13.3573 0.566459 13.3568 0.510763 13.3562 0.455701C13.3532 0.200861 13.1507 -0.00306886 12.9042 0.000159887C12.6577 0.00333098 12.4603 0.21245 12.4634 0.467117C12.4639 0.520449 12.4645 0.572397 12.4645 0.622385C12.4623 2.34423 12.0306 3.2398 11.6479 3.7157C11.455 3.95422 11.2693 4.09063 11.1378 4.1676C11.0798 4.20168 11.0332 4.2233 11.0011 4.23673H8.99923C8.88152 4.18744 8.56062 4.02456 8.24546 3.57352C7.89491 3.06902 7.53672 2.18573 7.5356 0.622385C7.53549 0.571244 7.53594 0.520276 7.53672 0.469481C7.54107 0.214756 7.34479 0.00471472 7.09822 0.000217543C6.85165 -0.00439495 6.64833 0.198555 6.64398 0.45328C6.64286 0.510993 6.64258 0.567381 6.64258 0.622385C6.64052 2.50128 7.12919 3.64438 7.66681 4.30702C7.96473 4.67561 8.2685 4.88888 8.49057 5.00858Z" fill="white"/>
<path d="M9.99987 3.90813C10.6934 3.90813 11.2556 3.32732 11.2556 2.61086C11.2556 1.8944 10.6934 1.3136 9.99987 1.3136C9.30635 1.3136 8.74414 1.8944 8.74414 2.61086C8.74414 3.32732 9.30635 3.90813 9.99987 3.90813Z" fill="white"/>
</g>
<defs>
<clipPath id="clip0_916_4865">
<rect width="20" height="15" fill="white"/>
</clipPath>
</defs>
</svg>
