<svg width="20" height="16" viewBox="0 0 20 16" fill="none" xmlns="http://www.w3.org/2000/svg">
<path fill-rule="evenodd" clip-rule="evenodd" d="M2.47595 0H17.5241C17.7513 0 17.9365 0.197119 17.9365 0.438823V9.96457H2.06353V0.438823C2.06353 0.197119 2.24883 0 2.47595 0ZM10.6098 2.80311L10.4535 1.76394H9.54656L9.39021 2.80311C9.16523 2.86437 8.94962 2.95948 8.74991 3.08558L7.94853 2.4682L7.30725 3.15053L7.88753 4.00325C7.76904 4.21573 7.67966 4.44512 7.62209 4.68448L6.64534 4.85083V5.8158L7.62205 5.98216C7.67965 6.22151 7.76905 6.4509 7.88753 6.66339L7.30725 7.51611L7.94853 8.19844L8.74996 7.58106C8.94965 7.70716 9.16524 7.80229 9.39021 7.86357L9.54656 8.90279H10.4535L10.6098 7.86353C10.8348 7.80226 11.0504 7.70714 11.2501 7.58106L12.0515 8.19844L12.6928 7.51611L12.1126 6.66339C12.2311 6.45092 12.3205 6.22153 12.378 5.98216L13.3547 5.81585V4.85088L12.3779 4.68452C12.3204 4.44515 12.231 4.21576 12.1125 4.00329L12.6927 3.15057L12.0514 2.46825L11.25 3.08567C11.0503 2.95951 10.8348 2.86436 10.6098 2.80311ZM0.413861 16H19.5861C19.7307 16 19.855 15.9278 19.9331 15.7984C20.0113 15.669 20.0213 15.5187 19.9612 15.3788L17.9365 10.6667H2.06353L0.0388003 15.3788C-0.0213315 15.5187 -0.0112682 15.669 0.0668866 15.7984C0.145 15.9278 0.269306 16 0.413861 16ZM7.68829 14.6835L8.3259 12.4277H11.6741L12.3118 14.6835H7.68829ZM10 3.90754C9.25996 3.90754 8.66001 4.5459 8.66001 5.33332C8.66001 6.12079 9.25996 6.7591 10 6.7591C10.7401 6.7591 11.34 6.12074 11.34 5.33332C11.34 4.5459 10.7401 3.90754 10 3.90754Z" fill="white"/>
</svg>
