<svg width="18" height="20" viewBox="0 0 18 20" fill="none" xmlns="http://www.w3.org/2000/svg">
<path d="M6.95455 3.33333H11.0455C11.0455 2.7808 10.83 2.2509 10.4464 1.86019C10.0628 1.46949 9.54249 1.25 9 1.25C8.45751 1.25 7.93724 1.46949 7.55365 1.86019C7.17005 2.2509 6.95455 2.7808 6.95455 3.33333ZM5.72727 3.33333C5.72727 2.44928 6.07208 1.60143 6.68583 0.976311C7.29959 0.35119 8.13202 0 9 0C9.86798 0 10.7004 0.35119 11.3142 0.976311C11.9279 1.60143 12.2727 2.44928 12.2727 3.33333H17.3864C17.5491 3.33333 17.7052 3.39918 17.8203 3.51639C17.9354 3.6336 18 3.79257 18 3.95833C18 4.12409 17.9354 4.28306 17.8203 4.40028C17.7052 4.51749 17.5491 4.58333 17.3864 4.58333H16.3145L15.3188 16.7525C15.2464 17.6378 14.8499 18.463 14.2081 19.0645C13.5663 19.666 12.726 19.9999 11.8538 20H6.14618C5.27399 19.9999 4.43368 19.666 3.79187 19.0645C3.15006 18.463 2.75362 17.6378 2.68118 16.7525L1.68545 4.58333H0.613636C0.45089 4.58333 0.294809 4.51749 0.17973 4.40028C0.0646507 4.28306 0 4.12409 0 3.95833C0 3.79257 0.0646507 3.6336 0.17973 3.51639C0.294809 3.39918 0.45089 3.33333 0.613636 3.33333H5.72727ZM7.77273 8.125C7.77273 7.95924 7.70808 7.80027 7.593 7.68306C7.47792 7.56585 7.32184 7.5 7.15909 7.5C6.99634 7.5 6.84026 7.56585 6.72518 7.68306C6.61011 7.80027 6.54545 7.95924 6.54545 8.125V15.2083C6.54545 15.3741 6.61011 15.5331 6.72518 15.6503C6.84026 15.7675 6.99634 15.8333 7.15909 15.8333C7.32184 15.8333 7.47792 15.7675 7.593 15.6503C7.70808 15.5331 7.77273 15.3741 7.77273 15.2083V8.125ZM10.8409 7.5C10.6782 7.5 10.5221 7.56585 10.407 7.68306C10.2919 7.80027 10.2273 7.95924 10.2273 8.125V15.2083C10.2273 15.3741 10.2919 15.5331 10.407 15.6503C10.5221 15.7675 10.6782 15.8333 10.8409 15.8333C11.0037 15.8333 11.1597 15.7675 11.2748 15.6503C11.3899 15.5331 11.4545 15.3741 11.4545 15.2083V8.125C11.4545 7.95924 11.3899 7.80027 11.2748 7.68306C11.1597 7.56585 11.0037 7.5 10.8409 7.5Z" fill="#FF3C5F"/>
</svg>
