<svg width="12" height="18" viewBox="0 0 12 18" fill="none" xmlns="http://www.w3.org/2000/svg">
<path d="M7.5 9C7.5 7.9995 9.123 7.3155 10 6C11 4.5 11 1 11 1H1C1 1 1 4.5 2 6C2.8765 7.3155 4.5 7.9995 4.5 9C4.5 10.0005 2.8765 10.6845 2 12C1 13.5 1 17 1 17H11C11 17 11 13.5 10 12C9.123 10.6845 7.5 10.0005 7.5 9Z" fill="#FFE8B6"/>
<path d="M6 1H2C2 1 2 3 2.5 4.5C3.1515 6.4555 5.5 6.9995 5.5 9C5.5 11 5.5 15.5 6 15.5C6.5 15.5 6.5 11 6.5 9C6.5 6.9995 8.8485 6.4555 9.5 4.5C10 3 10 1 10 1H6Z" fill="#FFAC33"/>
<path d="M12 17C12 17.2652 11.8946 17.5196 11.7071 17.7071C11.5196 17.8946 11.2652 18 11 18H1C0.734784 18 0.48043 17.8946 0.292893 17.7071C0.105357 17.5196 0 17.2652 0 17C0 16.7348 0.105357 16.4804 0.292893 16.2929C0.48043 16.1054 0.734784 16 1 16H11C11.2652 16 11.5196 16.1054 11.7071 16.2929C11.8946 16.4804 12 16.7348 12 17ZM12 1C12 1.26522 11.8946 1.51957 11.7071 1.70711C11.5196 1.89464 11.2652 2 11 2H1C0.734784 2 0.48043 1.89464 0.292893 1.70711C0.105357 1.51957 0 1.26522 0 1C0 0.734783 0.105357 0.480429 0.292893 0.292892C0.48043 0.105356 0.734784 0 1 0H11C11.2652 0 11.5196 0.105356 11.7071 0.292892C11.8946 0.480429 12 0.734783 12 1Z" fill="#3B88C3"/>
</svg>
