<svg width="37" height="36" viewBox="0 0 37 36" fill="none" xmlns="http://www.w3.org/2000/svg">
<path d="M8 31.5H29C30.6569 31.5 32 30.1569 32 28.5V7.5C32 5.84315 30.6569 4.5 29 4.5H8C6.34315 4.5 5 5.84315 5 7.5V28.5C5 30.1569 6.34315 31.5 8 31.5ZM8 31.5L24.5 15L32 22.5M15.5 12.75C15.5 13.9926 14.4926 15 13.25 15C12.0074 15 11 13.9926 11 12.75C11 11.5074 12.0074 10.5 13.25 10.5C14.4926 10.5 15.5 11.5074 15.5 12.75Z" stroke="#1E1E1E" stroke-width="3" stroke-linecap="round" stroke-linejoin="round"/>
</svg>
