<svg width="20" height="21" viewBox="0 0 20 21" fill="none" xmlns="http://www.w3.org/2000/svg">
<path fill-rule="evenodd" clip-rule="evenodd" d="M12.1967 0.633113C11.6501 1.36836 11.3186 2.23518 11.2378 3.14058C11.157 4.04599 11.3299 4.9558 11.738 5.77244C12.1462 6.58908 12.7741 7.28172 13.5545 7.77607C14.3348 8.27041 15.2382 8.5478 16.1676 8.57849V8.58898C16.1823 8.77777 16.1969 8.97132 16.2164 9.1582C16.4477 11.3007 16.9745 12.7719 17.4809 13.7378C17.8175 14.3814 18.1482 14.8085 18.3824 15.0669C18.4851 15.1809 18.596 15.2876 18.7141 15.3864L18.7238 15.3921C18.849 15.4809 18.9422 15.6061 18.99 15.7499C19.0378 15.8937 19.0377 16.0486 18.9898 16.1923C18.9419 16.3361 18.8486 16.4613 18.7234 16.5499C18.5981 16.6386 18.4473 16.6863 18.2926 16.686H0.730874C0.576528 16.6858 0.426192 16.6379 0.301365 16.5492C0.176537 16.4605 0.0836112 16.3355 0.0358756 16.192C-0.0118601 16.0486 -0.0119608 15.894 0.0355881 15.7505C0.0831369 15.607 0.1759 15.4819 0.300612 15.393L0.308417 15.3864L0.370859 15.3349C0.429398 15.2834 0.524036 15.1966 0.641114 15.0669C0.875271 14.8095 1.20602 14.3823 1.54262 13.7387C2.21582 12.4525 2.92609 10.2785 2.92609 6.8174C2.92609 5.0239 3.60905 3.29524 4.83837 2.01376C6.06964 0.730368 7.74971 0 9.51174 0C9.88509 0 10.2536 0.0321006 10.6172 0.0963017C10.8494 0.137302 11.6104 0.368998 12.1967 0.633113Z" fill="white"/>
<path fill-rule="evenodd" clip-rule="evenodd" d="M12.6828 3.57556C12.6828 2.62726 13.0682 1.71781 13.7544 1.04726C14.4405 0.37671 15.3711 0 16.3415 0C17.3118 0 18.2424 0.37671 18.9286 1.04726C19.6147 1.71781 20.0002 2.62726 20.0002 3.57556C20.0002 4.52386 19.6147 5.43332 18.9286 6.10387C18.2424 6.77441 17.3118 7.15112 16.3415 7.15112C15.3711 7.15112 14.4405 6.77441 13.7544 6.10387C13.0682 5.43332 12.6828 4.52386 12.6828 3.57556ZM7.45718 18.2125C7.54033 18.1654 7.63216 18.1348 7.72742 18.1224C7.82268 18.11 7.91951 18.116 8.01237 18.1402C8.10524 18.1644 8.19232 18.2062 8.26865 18.2632C8.34498 18.3203 8.40906 18.3915 8.45723 18.4728C8.56446 18.6533 8.71833 18.8031 8.90342 18.9072C9.08851 19.0114 9.29833 19.0662 9.51191 19.0662C9.72548 19.0662 9.93531 19.0114 10.1204 18.9072C10.3055 18.8031 10.4593 18.6533 10.5666 18.4728C10.6148 18.3915 10.679 18.3203 10.7554 18.2633C10.8317 18.2063 10.9189 18.1645 11.0118 18.1404C11.1047 18.1162 11.2016 18.1102 11.2968 18.1227C11.3921 18.1351 11.484 18.1658 11.5671 18.213C11.6503 18.2601 11.7231 18.3228 11.7815 18.3974C11.8398 18.4721 11.8826 18.5572 11.9073 18.648C11.932 18.7388 11.9381 18.8335 11.9254 18.9266C11.9126 19.0197 11.8812 19.1095 11.833 19.1908C11.5972 19.5882 11.2586 19.9181 10.8513 20.1475C10.4439 20.3768 9.98203 20.4976 9.51191 20.4976C9.04178 20.4976 8.57991 20.3768 8.17255 20.1475C7.7652 19.9181 7.42665 19.5882 7.19083 19.1908C7.1425 19.1095 7.11104 19.0196 7.09827 18.9264C7.0855 18.8332 7.09166 18.7385 7.1164 18.6476C7.14114 18.5568 7.18398 18.4716 7.24245 18.3969C7.30093 18.3222 7.3739 18.2596 7.45718 18.2125Z" fill="white"/>
</svg>
