<svg width="20" height="20" viewBox="0 0 20 20" fill="none" xmlns="http://www.w3.org/2000/svg">
<g clip-path="url(#clip0_916_5654)">
<path d="M4.90625 4.625C6.21875 3.40625 7.90625 2.6875 9.65625 2.59375H9.71875V0H9.6875C7.1875 0.09375 4.84375 1.0625 3.0625 2.8125L3 2.84375L4.875 4.65625L4.90625 4.625ZM7 16.7813C4.34375 15.5938 2.59375 12.9375 2.59375 10C2.59375 8.1875 3.25 6.4375 4.46875 5.0625L4.5 5.03125L2.625 3.21875L2.59375 3.28125C0.9375 5.09375 0 7.5 0 10C0 14 2.375 17.5938 6.0625 19.1875L6.125 19.2188L7.0625 16.8125L7 16.7813ZM17.4062 10.3125C17.2188 14.2813 13.9688 17.4063 10 17.4063C9.1875 17.4063 8.375 17.2813 7.59375 17L7.53125 16.9688L6.59375 19.375L6.65625 19.4063C7.71875 19.7813 8.84375 19.9688 10 19.9688C15.4375 19.9688 19.8125 15.7188 20 10.2813V10.2188H17.4062V10.3125ZM17.4062 9.6875V9.75H20V9.6875C19.8438 4.40625 15.5938 0.15625 10.3125 0H10.25V2.59375H10.3125C14.125 2.75 17.25 5.875 17.4062 9.6875Z" fill="white"/>
<path d="M7.3125 11.4062H6.09375C6 11.4062 5.90625 11.4687 5.90625 11.5625V13.0312H5.5625C5.3125 13.0312 5.125 13.2187 5.125 13.4375C5.125 13.6562 5.3125 13.8437 5.5625 13.8437H14.4375C14.6875 13.8437 14.875 13.6562 14.875 13.4375C14.875 13.2187 14.6875 13.0312 14.4375 13.0312H14.25V6.625C14.25 6.53125 14.1562 6.46875 14.0625 6.46875H12.8437C12.75 6.46875 12.6562 6.53125 12.6562 6.625V13H11.9688V8C11.9688 7.90625 11.9063 7.84375 11.7813 7.84375H10.5625C10.4688 7.84375 10.375 7.90625 10.375 8V13H9.6875V9.875C9.6875 9.78125 9.59375 9.71875 9.5 9.71875H8.28125C8.1875 9.71875 8.09375 9.78125 8.09375 9.875V13H7.40625V11.5625C7.46875 11.4687 7.40625 11.4062 7.3125 11.4062Z" fill="white"/>
</g>
<defs>
<clipPath id="clip0_916_5654">
<rect width="20" height="20" fill="white"/>
</clipPath>
</defs>
</svg>
