<svg width="33" height="24" viewBox="0 0 33 24" fill="none" xmlns="http://www.w3.org/2000/svg">
<path d="M22.5 0C22.8978 0 23.2794 0.158036 23.5607 0.43934C23.842 0.720645 24 1.10218 24 1.5V7.8L31.8195 2.325C31.9319 2.24618 32.0639 2.19975 32.2009 2.19075C32.3379 2.18176 32.4747 2.21055 32.5965 2.27399C32.7183 2.33743 32.8203 2.43309 32.8915 2.55053C32.9626 2.66797 33.0002 2.80269 33 2.94V21.06C33.0002 21.1973 32.9626 21.332 32.8915 21.4495C32.8203 21.5669 32.7183 21.6626 32.5965 21.726C32.4747 21.7894 32.3379 21.8182 32.2009 21.8092C32.0639 21.8003 31.9319 21.7538 31.8195 21.675L24 16.2V22.5C24 22.8978 23.842 23.2794 23.5607 23.5607C23.2794 23.842 22.8978 24 22.5 24H1.5C1.10218 24 0.720644 23.842 0.43934 23.5607C0.158035 23.2794 0 22.8978 0 22.5V1.5C0 1.10218 0.158035 0.720645 0.43934 0.43934C0.720644 0.158036 1.10218 0 1.5 0H22.5ZM21 3H3V21H21V3ZM12 6L18 12H13.5V18H10.5V12H6L12 6ZM30 7.2615L24 11.4615V12.5385L30 16.7385V7.2615Z" fill="#121212"/>
</svg>
