<svg width="20" height="19" viewBox="0 0 20 19" fill="none" xmlns="http://www.w3.org/2000/svg">
<path d="M9.95136 4.52381C11.2006 4.52381 12.2133 3.51112 12.2133 2.26191C12.2133 1.01269 11.2006 0 9.95136 0C8.70214 0 7.68945 1.01269 7.68945 2.26191C7.68945 3.51112 8.70214 4.52381 9.95136 4.52381Z" fill="#FEBD59"/>
<path d="M19 13.5716H18.0953V10.8573C18.0953 10.6173 17.9999 10.3872 17.8303 10.2175C17.6606 10.0478 17.4305 9.95253 17.1905 9.95253H10.8572V8.59538H14.0238V6.78586C12.8024 6.15252 11.4 5.42871 9.95239 5.42871C8.50477 5.42871 7.10239 6.15252 5.88096 6.78586V8.59538H9.04763V9.95253H2.71429C2.47433 9.95253 2.2442 10.0478 2.07452 10.2175C1.90485 10.3872 1.80953 10.6173 1.80953 10.8573V13.5716H0.904763C0.664805 13.5716 0.434675 13.6669 0.264999 13.8366C0.0953229 14.0063 0 14.2364 0 14.4763V18.0954C0 18.3353 0.0953229 18.5655 0.264999 18.7352C0.434675 18.9048 0.664805 19.0002 0.904763 19.0002H4.52381C4.76377 19.0002 4.9939 18.9048 5.16358 18.7352C5.33325 18.5655 5.42858 18.3353 5.42858 18.0954V14.4763C5.42858 14.2364 5.33325 14.0063 5.16358 13.8366C4.9939 13.6669 4.76377 13.5716 4.52381 13.5716H3.61905V11.7621H9.04763V13.5716H8.14287C7.90291 13.5716 7.67278 13.6669 7.5031 13.8366C7.33343 14.0063 7.2381 14.2364 7.2381 14.4763V18.0954C7.2381 18.3353 7.33343 18.5655 7.5031 18.7352C7.67278 18.9048 7.90291 19.0002 8.14287 19.0002H11.7619C12.0019 19.0002 12.232 18.9048 12.4017 18.7352C12.5714 18.5655 12.6667 18.3353 12.6667 18.0954V14.4763C12.6667 14.2364 12.5714 14.0063 12.4017 13.8366C12.232 13.6669 12.0019 13.5716 11.7619 13.5716H10.8572V11.7621H16.2857V13.5716H15.381C15.141 13.5716 14.9109 13.6669 14.7412 13.8366C14.5715 14.0063 14.4762 14.2364 14.4762 14.4763V18.0954C14.4762 18.3353 14.5715 18.5655 14.7412 18.7352C14.9109 18.9048 15.141 19.0002 15.381 19.0002H19C19.24 19.0002 19.4701 18.9048 19.6398 18.7352C19.8095 18.5655 19.9048 18.3353 19.9048 18.0954V14.4763C19.9048 14.2364 19.8095 14.0063 19.6398 13.8366C19.4701 13.6669 19.24 13.5716 19 13.5716Z" fill="#FEBD59"/>
</svg>
