<svg width="20" height="16" viewBox="0 0 20 16" fill="none" xmlns="http://www.w3.org/2000/svg">
<path d="M19.0781 11.6656C19.1594 11.225 19.1594 10.775 19.0781 10.3344L19.8844 9.86875C19.9781 9.81562 20.0187 9.70625 19.9875 9.60312C19.7781 8.92812 19.4188 8.31563 18.95 7.80937C18.8781 7.73125 18.7625 7.7125 18.6688 7.76562L17.8625 8.23125C17.5219 7.94062 17.1313 7.71563 16.7094 7.56563V6.63438C16.7094 6.52813 16.6344 6.43437 16.5312 6.4125C15.8344 6.25625 15.125 6.2625 14.4625 6.4125C14.3594 6.43437 14.2844 6.52813 14.2844 6.63438V7.56563C13.8625 7.71563 13.4719 7.94062 13.1313 8.23125L12.325 7.76562C12.2344 7.7125 12.1156 7.73125 12.0437 7.80937C11.575 8.31563 11.2156 8.92812 11.0063 9.60312C10.975 9.70625 11.0188 9.81562 11.1094 9.86875L11.9156 10.3344C11.8344 10.775 11.8344 11.225 11.9156 11.6656L11.1094 12.1313C11.0156 12.1844 10.975 12.2938 11.0063 12.3969C11.2156 13.0719 11.575 13.6813 12.0437 14.1906C12.1156 14.2688 12.2312 14.2875 12.325 14.2344L13.1313 13.7688C13.4719 14.0594 13.8625 14.2844 14.2844 14.4344V15.3656C14.2844 15.4719 14.3594 15.5656 14.4625 15.5875C15.1594 15.7437 15.8687 15.7375 16.5312 15.5875C16.6344 15.5656 16.7094 15.4719 16.7094 15.3656V14.4344C17.1313 14.2844 17.5219 14.0594 17.8625 13.7688L18.6688 14.2344C18.7594 14.2875 18.8781 14.2688 18.95 14.1906C19.4188 13.6844 19.7781 13.0719 19.9875 12.3969C20.0187 12.2938 19.975 12.1844 19.8844 12.1313L19.0781 11.6656ZM15.5 12.5156C14.6625 12.5156 13.9844 11.8344 13.9844 11C13.9844 10.1656 14.6656 9.48438 15.5 9.48438C16.3344 9.48438 17.0156 10.1656 17.0156 11C17.0156 11.8344 16.3375 12.5156 15.5 12.5156ZM7 8C9.20938 8 11 6.20937 11 4C11 1.79063 9.20938 0 7 0C4.79063 0 3 1.79063 3 4C3 6.20937 4.79063 8 7 8ZM13.2875 15.0781C13.2156 15.0406 13.1438 14.9969 13.075 14.9563L12.8281 15.1C12.6406 15.2063 12.4281 15.2656 12.2156 15.2656C11.875 15.2656 11.5469 15.1219 11.3125 14.8719C10.7406 14.2531 10.3031 13.5 10.0562 12.6969C9.88437 12.1437 10.1156 11.5594 10.6156 11.2688L10.8625 11.125C10.8594 11.0437 10.8594 10.9625 10.8625 10.8813L10.6156 10.7375C10.1156 10.45 9.88437 9.8625 10.0562 9.30937C10.0844 9.21875 10.125 9.12813 10.1562 9.0375C10.0375 9.02813 9.92188 9 9.8 9H9.27812C8.58437 9.31875 7.8125 9.5 7 9.5C6.1875 9.5 5.41875 9.31875 4.72188 9H4.2C1.88125 9 0 10.8813 0 13.2V14.5C0 15.3281 0.671875 16 1.5 16H12.5C12.8156 16 13.1094 15.9 13.35 15.7344C13.3125 15.6156 13.2875 15.4938 13.2875 15.3656V15.0781Z" fill="white"/>
</svg>
