<svg width="20" height="15" viewBox="0 0 20 15" fill="none" xmlns="http://www.w3.org/2000/svg">
<path d="M12.5808 4.02593L12.5808 4.02593C12.5808 4.02584 12.5786 4.03311 12.573 4.05282L12.5531 4.12303C12.5369 4.18096 12.5155 4.25834 12.4901 4.35045C12.464 4.44501 12.4341 4.55361 12.4017 4.67151C12.3707 4.78424 12.3374 4.90546 12.3028 5.03103C12.1648 5.53177 12.0079 6.09758 11.916 6.40662C11.9153 6.40947 11.9148 6.41182 11.9144 6.41356C11.9118 6.42407 11.9095 6.43224 11.9086 6.43513L11.9046 6.44855L11.9019 6.45683L11.898 6.46903C11.895 6.47887 11.8903 6.49447 11.885 6.51503C11.8742 6.55663 11.8608 6.61743 11.8518 6.6901C11.8333 6.84059 11.8376 7.01285 11.8961 7.16764L11.8966 7.16899C12.0266 7.51595 11.8987 7.97504 11.4978 8.15157C11.0888 8.33171 10.6591 8.1069 10.5102 7.73792L10.5065 7.72861L10.5066 7.72857C10.4048 7.46102 10.3627 7.19961 10.3532 6.9643H6.35649C6.40348 7.45619 6.63363 7.89444 6.87837 8.22757L6.8807 8.23073L6.88068 8.23074C7.42465 8.98344 7.71741 9.93413 7.71741 10.9114V13.8351H11.3207V10.9619C11.3207 10.0362 11.6199 9.10862 12.1675 8.27109L12.5808 4.02593ZM12.5808 4.02593L12.582 4.02197M12.5808 4.02593L12.582 4.02197M12.582 4.02197C12.6864 3.6842 12.8851 3.42263 13.1042 3.27592C13.2372 3.18682 13.3742 3.14066 13.5112 3.13853C13.0477 4.14204 12.8942 5.17862 12.7675 6.03472C12.7648 6.05248 12.7622 6.07016 12.7596 6.08776L12.7592 6.09035M12.582 4.02197L12.7592 6.09035M12.7592 6.09035C12.6267 7.01792 12.5105 7.74631 12.1675 8.27104L12.7592 6.09035ZM11.7994 6.62054L11.8023 6.61736C11.801 6.61876 11.7999 6.62003 11.7991 6.62092L11.7994 6.62054Z"  stroke="white"/>
<path d="M12.6147 1.8129C12.5119 1.86092 12.4125 1.91644 12.3172 1.97876V1.21284C12.3172 1.14502 12.3425 1.09017 12.375 1.05493C12.407 1.02029 12.4397 1.00956 12.4659 1.00956C12.5022 1.00956 12.5332 1.02302 12.5597 1.05177C12.5875 1.08187 12.6147 1.13515 12.6147 1.21284V1.8129ZM8.80115 3.43428C8.76864 3.39904 8.74328 3.34418 8.74328 3.27636V3.27626V3.27592V3.27554V3.27513V3.27469V3.27421V3.2737V3.27315V3.27257V3.27196V3.27131V3.27063V3.26992V3.26918V3.2684V3.26759V3.26674V3.26587V3.26496V3.26402V3.26305V3.26205V3.26101V3.25994V3.25885V3.25772V3.25656V3.25537V3.25414V3.25289V3.25161V3.2503V3.24895V3.24758V3.24618V3.24474V3.24328V3.24179V3.24027V3.23872V3.23714V3.23553V3.23389V3.23222V3.23053V3.2288V3.22705V3.22527V3.22347V3.22163V3.21977V3.21788V3.21596V3.21402V3.21204V3.21004V3.20802V3.20597V3.20389V3.20178V3.19965V3.19749V3.19531V3.1931V3.19086V3.1886V3.18632V3.184V3.18167V3.17931V3.17692V3.17451V3.17207V3.16961V3.16713V3.16462V3.16209V3.15953V3.15695V3.15435V3.15172V3.14907V3.14639V3.1437V3.14098V3.13824V3.13547V3.13268V3.12987V3.12704V3.12419V3.12131V3.11842V3.1155V3.11256V3.1096V3.10661V3.10361V3.10058V3.09754V3.09447V3.09139V3.08828V3.08515V3.082V3.07884V3.07565V3.07244V3.06922V3.06597V3.06271V3.05942V3.05612V3.0528V3.04946V3.0461V3.04272V3.03933V3.03592V3.03249V3.02904V3.02557V3.02209V3.01858V3.01507V3.01153V3.00798V3.00441V3.00082V2.99722V2.9936V2.98997V2.98631V2.98265V2.97896V2.97527V2.97155V2.96782V2.96408V2.96032V2.95654V2.95275V2.94895V2.94513V2.94129V2.93745V2.93358V2.92971V2.92582V2.92192V2.918V2.91407V2.91012V2.90617V2.9022V2.89821V2.89422V2.89021V2.88619V2.88216V2.87811V2.87406V2.86999V2.86591V2.86181V2.85771V2.8536V2.84947V2.84533V2.84119V2.83703V2.83286V2.82868V2.82449V2.82029V2.81608V2.81186V2.80763V2.80339V2.79914V2.79488V2.79061V2.78634V2.78205V2.77776V2.77345V2.76914V2.76482V2.7605V2.75616V2.75182V2.74746V2.74311V2.73874V2.73436V2.72998V2.72559V2.7212V2.7168V2.71239V2.70797V2.70355V2.69912V2.69469V2.69025V2.6858V2.68135V2.6769V2.67243V2.66797V2.66349V2.65902V2.65453V2.65005V2.64555V2.64106V2.63656V2.63205V2.62754V2.62303V2.61852V2.614V2.60947V2.60495V2.60042V2.59589V2.59135V2.58681V2.58227V2.57773V2.57319V2.56864V2.56409V2.55954V2.55499V2.55043V2.54588V2.54132V2.53676V2.5322V2.52764V2.52308V2.51852V2.51396V2.50939V2.50483V2.50027V2.49571V2.49114V2.48658V2.48202V2.47746V2.4729V2.46834V2.46379V2.45923V2.45467V2.45012V2.44557V2.44102V2.43647V2.43193V2.42738V2.42284V2.4183V2.41377V2.40923V2.4047V2.40018V2.39565V2.39113V2.38661V2.3821V2.37759V2.37308V2.36858V2.36409V2.35959V2.3551V2.35062V2.34614V2.34167V2.3372V2.33273V2.32827V2.32382V2.31937V2.31493V2.31049V2.30606V2.30164V2.29722V2.29281V2.28841V2.28401V2.27962V2.27523V2.27086V2.26649V2.26213V2.25777V2.25342V2.24909V2.24476V2.24043V2.23612V2.23181V2.22752V2.22323V2.21895V2.21468V2.21041V2.20616V2.20192V2.19769V2.19346V2.18925V2.18505V2.18085V2.17667V2.1725V2.16833V2.16418V2.16004V2.15591V2.15179V2.14768V2.14359V2.1395V2.13543V2.13137V2.12732V2.12328V2.11926V2.11525V2.11125V2.10726V2.10328V2.09932V2.09537V2.09144V2.08752V2.08361V2.07971V2.07583V2.07197V2.06811V2.06428V2.06045V2.05664V2.05285V2.04907V2.0453V2.04155V2.03782V2.0341V2.03039V2.0267V2.02303V2.01937V2.01573V2.01211V2.0085V2.00491V2.00133V1.99777V1.99423V1.99071V1.9872V1.98371V1.98024V1.97678V1.97334V1.96992V1.96652V1.96314V1.95977V1.95643V1.9531V1.94979V1.9465V1.94323V1.93998V1.93674V1.93353V1.93034V1.92716V1.92401V1.92087V1.91776V1.91467V1.91159V1.90854V1.90551V1.9025V1.8995V1.89654V1.89359V1.89066V1.88776V1.88487V1.88201V1.87917V1.87635V1.87356V1.87079V1.86804V1.86531V1.8626V1.85992V1.85726V1.85463V1.85202V1.84943V1.84686V1.84432V1.8418V1.83931V1.83684V1.8344V1.83198V1.82958V1.82721V1.82487V1.82255V1.82025V1.81798V1.81574V1.81352V1.81132V1.80916V1.80702V1.8049V1.80281V1.80075V1.79872V1.79671V1.79472V1.79277V1.79084V1.78894V1.78707V1.78523V1.78341V1.78162V1.77986V1.77812V1.77642V1.77474V1.77309V1.77148V1.76989V1.76832V1.76679V1.76529V1.76382V1.76237V1.76096V1.75957V1.75822V1.7569V1.7556V1.75434V1.75311V1.75191V1.75073V1.74959V1.74849V1.74741V1.74636V1.74535V1.74436V1.74341V1.74249V1.74161V1.74075V1.73993V1.73914V1.73838V1.73766V1.73697V1.73631V1.73568V1.73509V1.73453V1.73401V1.73352V1.73306V1.73264V1.73225V1.7319V1.73158V1.73129V1.73104V1.73083V0.703281C8.74328 0.635461 8.76864 0.580604 8.80115 0.545367C8.8331 0.510723 8.86582 0.5 8.89202 0.5C8.91822 0.5 8.95094 0.510723 8.98289 0.545367C9.0154 0.580604 9.04076 0.635462 9.04076 0.703281V3.27636C9.04076 3.34418 9.0154 3.39904 8.98289 3.43428C8.95094 3.46892 8.91822 3.47964 8.89202 3.47964C8.86582 3.47964 8.8331 3.46892 8.80115 3.43428ZM14.377 5.42946C14.4448 5.06102 14.5267 4.70203 14.6425 4.35148V5.42946H14.377ZM16.1397 8.27513C16.1397 6.86888 16.1398 5.94271 16.1399 5.35281C16.1404 5.35231 16.1409 5.35181 16.1414 5.35131V5.35071V5.35049V5.35038V5.35002V5.34984V5.34875L16.1414 5.3391L16.1414 5.3157L16.1413 5.1587L16.1397 1.09072C16.1397 1.09067 16.1397 1.09062 16.1397 1.09056C16.1397 1.09055 16.1397 1.09054 16.1397 1.09053C16.1398 0.725802 16.4037 0.5 16.6458 0.5C16.8868 0.5 17.152 0.72879 17.152 1.09072V2.63204V6.72539V8.27513C17.152 8.63997 16.888 8.86585 16.6458 8.86585C16.4049 8.86585 16.1397 8.63706 16.1397 8.27513ZM10.5302 3.27636V0.703281C10.5302 0.625587 10.5574 0.572305 10.5852 0.542209C10.6117 0.513459 10.6427 0.5 10.679 0.5C10.7152 0.5 10.7462 0.51346 10.7728 0.542209C10.8005 0.572306 10.8277 0.625588 10.8277 0.703281V1.21705V3.27636C10.8277 3.35406 10.8005 3.40734 10.7728 3.43743C10.7462 3.46618 10.7152 3.47964 10.679 3.47964C10.6427 3.47964 10.6117 3.46618 10.5852 3.43744C10.5574 3.40734 10.5302 3.35406 10.5302 3.27636ZM7.10119 3.37436H7.0973C7.0711 3.37436 7.03838 3.36364 7.00643 3.32899C6.97392 3.29376 6.94856 3.2389 6.94856 3.17108V1.72662C6.94856 1.57857 7.05143 1.52334 7.10119 1.52334C7.13746 1.52334 7.16845 1.5368 7.19497 1.56555C7.22274 1.59564 7.24993 1.64892 7.24993 1.72662V3.17108C7.24993 3.24877 7.22274 3.30206 7.19497 3.33215C7.16845 3.3609 7.13746 3.37436 7.10119 3.37436ZM18.6453 2.63204C18.6453 2.34992 18.8485 2.18872 19.0155 2.18872C19.1838 2.18872 19.3895 2.34722 19.3895 2.64046V6.7296C19.3895 7.01172 19.1863 7.17292 19.0194 7.17292C18.851 7.17292 18.6453 7.01021 18.6453 6.72539V2.63204ZM0.870167 2.18872C1.04306 2.18872 1.24422 2.35202 1.24422 2.64046V6.7296C1.24422 7.01172 1.04099 7.17292 0.874052 7.17292C0.70573 7.17292 0.5 7.01021 0.5 6.72539V2.63204C0.5 2.35143 0.70573 2.18872 0.870167 2.18872Z"  stroke="white"/>
<path d="M5.66845 5.42946H5.24778V3.93639H5.62903C5.89116 4.4983 6.43803 4.90919 7.10189 4.90919H7.10578C7.41009 4.90919 7.68801 4.82011 7.9244 4.67257C8.19194 4.88164 8.52532 5.01026 8.89273 5.01026C9.23041 5.01026 9.53468 4.90178 9.7862 4.725C10.0377 4.90178 10.342 5.01026 10.6797 5.01026C10.7058 5.01026 10.7317 5.00959 10.7574 5.00826C10.7189 5.14902 10.6798 5.29067 10.6407 5.42946H5.66845ZM3.75054 8.27513C3.75054 8.63997 3.48654 8.86585 3.24441 8.86585C3.00617 8.86585 2.73828 8.63576 2.73828 8.27513V8.25907V8.24299V8.22692V8.21083V8.19475V8.17865V8.16256V8.14645V8.13035V8.11423V8.09812V8.082V8.06587V8.04974V8.0336V8.01746V8.00132V7.98517V7.96902V7.95287V7.93671V7.92054V7.90437V7.8882V7.87203V7.85585V7.83967V7.82348V7.8073V7.7911V7.77491V7.75871V7.74251V7.72631V7.7101V7.69389V7.67768V7.66147V7.64525V7.62903V7.61281V7.59658V7.58036V7.56413V7.5479V7.53167V7.51543V7.4992V7.48296V7.46672V7.45048V7.43424V7.41799V7.40175V7.3855V7.36926V7.35301V7.33676V7.32051V7.30426V7.288V7.27175V7.2555V7.23924V7.22299V7.20673V7.19048V7.17422V7.15797V7.14171V7.12546V7.1092V7.09295V7.07669V7.06044V7.04418V7.02793V7.01168V6.99542V6.97917V6.96292V6.94667V6.93042V6.91417V6.89793V6.88168V6.86544V6.84919V6.83295V6.81671V6.80047V6.78424V6.768V6.75177V6.73554V6.71931V6.70308V6.68685V6.67063V6.65441V6.63819V6.62198V6.60576V6.58955V6.57334V6.55714V6.54094V6.52474V6.50854V6.49235V6.47616V6.45997V6.44378V6.4276V6.41143V6.39525V6.37908V6.36292V6.34676V6.3306V6.31444V6.29829V6.28215V6.266V6.24987V6.23373V6.2176V6.20148V6.18536V6.16924V6.15313V6.13703V6.12093V6.10483V6.08874V6.07265V6.05657V6.0405V6.02443V6.00836V5.99231V5.97625V5.96021V5.94416V5.92813V5.9121V5.89607V5.88005V5.86404V5.84804V5.83204V5.81604V5.80006V5.78408V5.76811V5.75214V5.73618V5.72023V5.70428V5.68834V5.67241V5.65648V5.64057V5.62466V5.60875V5.59286V5.57697V5.56109V5.54522V5.52935V5.5135V5.49765V5.48181V5.46598V5.45015V5.43434V5.41853V5.40273V5.38694V5.37116V5.35538V5.33962V5.32386V5.30811V5.29238V5.27665V5.26093V5.24522V5.22952V5.21382V5.19814V5.18247V5.16681V5.15115V5.13551V5.11987V5.10425V5.08864V5.07303V5.05744V5.04186V5.02628V5.01072V4.99517V4.97963V4.96409V4.94857V4.93306V4.91757V4.90208V4.8866V4.87114V4.85568V4.84024V4.82481V4.80939V4.79398V4.77858V4.76319V4.74782V4.73246V4.71711V4.70177V4.68644V4.67113V4.65583V4.64054V4.62526V4.61V4.59474V4.5795V4.56428V4.54906V4.53386V4.51867V4.5035V4.48834V4.47319V4.45805V4.44293V4.42782V4.41272V4.39764V4.38257V4.36752V4.35248V4.33745V4.32244V4.30744V4.29245V4.27748V4.26252V4.24758V4.23265V4.21774V4.20284V4.18796V4.17309V4.15823V4.14339V4.12857V4.11376V4.09896V4.08418V4.06942V4.05467V4.03994V4.02522V4.01052V3.99583V3.98116V3.9665V3.95186V3.93724V3.92263V3.90804V3.89347V3.87891V3.86437V3.84984V3.83533V3.82084V3.80637V3.79191V3.77747V3.76304V3.74863V3.73424V3.71987V3.70551V3.69117V3.67685V3.66254V3.64826V3.63399V3.61974V3.6055V3.59129V3.57709V3.56291V3.54875V3.5346V3.52048V3.50637V3.49228V3.47821V3.46416V3.45013V3.43612V3.42212V3.40814V3.39419V3.38025V3.36633V3.35243V3.33855V3.32469V3.31085V3.29702V3.28322V3.26944V3.25568V3.24193V3.22821V3.21451V3.20082V3.18716V3.17352V3.15989V3.14629V3.13271V3.11915V3.10561V3.09209V3.07859V3.06511V3.05165V3.03822V3.0248V3.01141V2.99804V2.98469V2.97136V2.95805V2.94476V2.9315V2.91825V2.90503V2.89183V2.87865V2.8655V2.85236V2.83925V2.82616V2.8131V2.80005V2.78703V2.77403V2.76105V2.7481V2.73517V2.72226V2.70938V2.69652V2.68368V2.67086V2.65807V2.6453V2.63255V2.61983V2.60713V2.59446V2.58181V2.56918V2.55658V2.544V2.53145V2.51892V2.50641V2.49393V2.48147V2.46904V2.45663V2.44424V2.43188V2.41955V2.40724V2.39496V2.3827V2.37046V2.35825V2.34607V2.33391V2.32178V2.30967V2.29759V2.28553V2.2735V2.26149V2.24952V2.23756V2.22564V2.21374V2.20186V2.19001V2.17819V2.1664V2.15463V2.14288V2.13117V2.11948V2.10782V2.09618V2.08457V2.07299V2.06144V2.04991V2.03841V2.02694V2.0155V2.00408V1.99269V1.98133V1.97V1.95869V1.94741V1.93616V1.92494V1.91375V1.90258V1.89145V1.88034V1.86926V1.85821V1.84718V1.83619V1.82522V1.81429V1.80338V1.7925V1.78165V1.77083V1.76004V1.74928V1.73855V1.72785V1.71718V1.70653V1.69592V1.68534V1.67478V1.66426V1.65376V1.6433V1.63287V1.62247V1.61209V1.60175V1.59144V1.58116V1.57091V1.56069V1.5505V1.54034V1.53022V1.52012V1.51006V1.50003V1.49002V1.48005V1.47012V1.46021V1.45033V1.44049V1.43068V1.4209V1.41115V1.40143V1.39175V1.3821V1.37248V1.36289V1.35334V1.34382V1.33433V1.32487V1.31544V1.30605V1.2967V1.28737V1.27808V1.26882V1.25959V1.2504V1.24124V1.23211V1.22302V1.21396V1.20494V1.19595V1.18699V1.17807V1.16918V1.16032V1.1515V1.14271V1.13396V1.12524V1.11656V1.10791V1.0993V1.09072C2.73828 0.725881 3.00228 0.5 3.24441 0.5C3.48266 0.5 3.75054 0.730092 3.75054 1.09072V8.27513Z"  stroke="white"/>
</svg>
